<svg id="Layer_1" data-name="Layer 1" xmlns="http://www.w3.org/2000/svg" viewBox="0 0 151.43 45.45"><defs><style>.cls-1{fill:#0e3d4b;}.cls-2{fill:#092930;}.cls-3{fill:#f18f20;}.cls-4{fill:#c6711c;}</style></defs><path d="M65.82,23.27a11.27,11.27,0,0,1-4.07-.71,9.64,9.64,0,0,1-3.25-2,9.52,9.52,0,0,1-2.15-3.11,9.78,9.78,0,0,1-.77-3.91,9.86,9.86,0,0,1,.77-3.92,9.46,9.46,0,0,1,2.16-3.1,9.78,9.78,0,0,1,3.26-2,12,12,0,0,1,8.51.14,8.61,8.61,0,0,1,3.34,2.49l-2.81,2.6A6.46,6.46,0,0,0,68.65,8a6.05,6.05,0,0,0-2.59-.56,6.82,6.82,0,0,0-2.43.43A5.56,5.56,0,0,0,60.46,11,6.49,6.49,0,0,0,60,13.5,6.49,6.49,0,0,0,60.46,16a5.56,5.56,0,0,0,3.17,3.16,6.82,6.82,0,0,0,2.43.43A6.05,6.05,0,0,0,68.65,19a6.4,6.4,0,0,0,2.16-1.68l2.81,2.59a8.76,8.76,0,0,1-3.34,2.51A11,11,0,0,1,65.82,23.27Z" transform="translate(0 -0.05)"/><path d="M76.26,23v-20h4.22V23Z" transform="translate(0 -0.05)"/><path d="M91.6,23.17a9.31,9.31,0,0,1-4.36-1,7.05,7.05,0,0,1-2.9-2.66,7.17,7.17,0,0,1-1-3.84,7.46,7.46,0,0,1,1-3.88,7.25,7.25,0,0,1,2.77-2.64,8.69,8.69,0,0,1,7.82-.06,6.82,6.82,0,0,1,2.71,2.59,7.76,7.76,0,0,1,1,4c0,.16,0,.35,0,.55s0,.4,0,.58H86.74V14.42h9.59l-1.62.73a4.07,4.07,0,0,0-.46-2A3.34,3.34,0,0,0,93,11.87a3.64,3.64,0,0,0-1.89-.48,3.74,3.74,0,0,0-1.91.48,3.26,3.26,0,0,0-1.28,1.32,4.14,4.14,0,0,0-.46,2v.65A4.08,4.08,0,0,0,88,17.94a3.47,3.47,0,0,0,1.48,1.38,5.12,5.12,0,0,0,2.26.47,5.59,5.59,0,0,0,2-.35,5,5,0,0,0,1.6-1.05l2.24,2.43a6.58,6.58,0,0,1-2.51,1.74A9.36,9.36,0,0,1,91.6,23.17Z" transform="translate(0 -0.05)"/><path d="M110.26,8.21a6.75,6.75,0,0,1,3.09.69,4.93,4.93,0,0,1,2.14,2.1,7.39,7.39,0,0,1,.79,3.63V23h-4.21V15.28a3.75,3.75,0,0,0-.77-2.59,2.82,2.82,0,0,0-2.18-.84,3.78,3.78,0,0,0-1.79.42,3,3,0,0,0-1.25,1.28,5,5,0,0,0-.44,2.22V23h-4.21V8.42h4v4l-.76-1.22A5.4,5.4,0,0,1,106.94,9,6.9,6.9,0,0,1,110.26,8.21Z" transform="translate(0 -0.05)"/><path d="M127.1,23.17a8.47,8.47,0,0,1-4.11-1,7.28,7.28,0,0,1-2.84-2.66,7.17,7.17,0,0,1-1-3.84A7.14,7.14,0,0,1,123,9.17a9.28,9.28,0,0,1,8.22,0,7.1,7.1,0,0,1,3.86,6.52,7.18,7.18,0,0,1-3.86,6.5A8.55,8.55,0,0,1,127.1,23.17Zm0-3.46a3.6,3.6,0,0,0,1.89-.49,3.43,3.43,0,0,0,1.33-1.39,4.51,4.51,0,0,0,.48-2.14,4.48,4.48,0,0,0-.48-2.16A3.47,3.47,0,0,0,129,12.15a3.69,3.69,0,0,0-1.89-.49,3.75,3.75,0,0,0-1.89.49,3.54,3.54,0,0,0-1.33,1.38,4.26,4.26,0,0,0-.5,2.16,4.29,4.29,0,0,0,.5,2.14,3.5,3.5,0,0,0,1.33,1.39A3.65,3.65,0,0,0,127.1,19.71Z" transform="translate(0 -0.05)"/><path d="M135.58,23l6.51-8.53L142,16.74l-6.24-8.32h4.73l3.94,5.43-1.78.05,4.07-5.48h4.49L145,16.66V14.39L151.43,23h-4.78l-4.13-5.78,1.76.24L140.17,23Z" transform="translate(0 -0.05)"/><path d="M62.09,41.83A5.77,5.77,0,0,1,60,41.46a5,5,0,0,1-1.64-1.05,5.2,5.2,0,0,1-1.08-5.6,5,5,0,0,1,1.09-1.59,5.05,5.05,0,0,1,1.65-1,5.72,5.72,0,0,1,2.06-.37,5.48,5.48,0,0,1,2.09.39,4.19,4.19,0,0,1,1.64,1.14l-.91.88a3.73,3.73,0,0,0-2.76-1.16,4.13,4.13,0,0,0-1.54.28,3.75,3.75,0,0,0-1.22.78,3.68,3.68,0,0,0-.81,1.2,4.18,4.18,0,0,0,0,3,3.68,3.68,0,0,0,.81,1.2,3.75,3.75,0,0,0,1.22.78,4.13,4.13,0,0,0,1.54.28,4,4,0,0,0,1.5-.29,3.55,3.55,0,0,0,1.26-.89l.91.89a4.41,4.41,0,0,1-1.64,1.14A5.35,5.35,0,0,1,62.09,41.83Z" transform="translate(0 -0.05)"/><path d="M67.63,41.71V31.33H69V41.71Z" transform="translate(0 -0.05)"/><path d="M74.84,41.8a4.27,4.27,0,0,1-2.09-.49A3.57,3.57,0,0,1,71.35,40a3.81,3.81,0,0,1-.5-2,4,4,0,0,1,.48-2,3.61,3.61,0,0,1,1.33-1.33,3.85,3.85,0,0,1,1.91-.49,3.74,3.74,0,0,1,1.91.48A3.33,3.33,0,0,1,77.77,36a4,4,0,0,1,.47,2v.19q0,.12,0,.21H71.9v-1h5.61l-.54.33a2.44,2.44,0,0,0-.3-1.27,2.22,2.22,0,0,0-.84-.88,2.68,2.68,0,0,0-2.5,0,2.23,2.23,0,0,0-.86.89,2.7,2.7,0,0,0-.3,1.29v.22a2.56,2.56,0,0,0,.34,1.33,2.38,2.38,0,0,0,1,.9,2.93,2.93,0,0,0,1.41.32,3.09,3.09,0,0,0,1.2-.22,2.58,2.58,0,0,0,.94-.67l.75.86a3.17,3.17,0,0,1-1.26.9A4.25,4.25,0,0,1,74.84,41.8Z" transform="translate(0 -0.05)"/><path d="M82.07,41.8a3.41,3.41,0,0,1-1.45-.28,2.21,2.21,0,0,1-1-.78,1.93,1.93,0,0,1-.34-1.13,2.14,2.14,0,0,1,.29-1.09,2,2,0,0,1,.94-.78,4.24,4.24,0,0,1,1.75-.3h2.36v1h-2.3a2,2,0,0,0-1.36.34,1.08,1.08,0,0,0-.35.81,1.06,1.06,0,0,0,.43.87,2,2,0,0,0,1.21.33,2.59,2.59,0,0,0,1.32-.33,1.93,1.93,0,0,0,.82-1l.27.92a2.06,2.06,0,0,1-.94,1A3.33,3.33,0,0,1,82.07,41.8Zm2.43-.09V40.15l-.07-.3V37.18a1.69,1.69,0,0,0-.5-1.32,2.05,2.05,0,0,0-1.49-.47,4,4,0,0,0-1.28.21,3.52,3.52,0,0,0-1.07.58l-.56-1a3.92,3.92,0,0,1,1.38-.71,5.91,5.91,0,0,1,1.69-.25A3.38,3.38,0,0,1,85,35a2.89,2.89,0,0,1,.83,2.26v4.48Z" transform="translate(0 -0.05)"/><path d="M92.23,34.22a3.52,3.52,0,0,1,1.6.35,2.56,2.56,0,0,1,1.09,1.07,3.72,3.72,0,0,1,.39,1.8v4.27H94V37.6A2.28,2.28,0,0,0,93.44,36,2,2,0,0,0,92,35.43a2.58,2.58,0,0,0-1.24.28,1.91,1.91,0,0,0-.82.82,2.94,2.94,0,0,0-.29,1.36v3.82H88.27V34.29h1.28v2l-.21-.54a2.65,2.65,0,0,1,1.12-1.13A3.73,3.73,0,0,1,92.23,34.22Z" transform="translate(0 -0.05)"/><path d="M104.62,41.83a6.62,6.62,0,0,1-2.14-.35,4.32,4.32,0,0,1-1.61-.89l.51-1.09a4.46,4.46,0,0,0,1.43.81,5,5,0,0,0,1.81.33,4,4,0,0,0,1.38-.2,1.63,1.63,0,0,0,.79-.54,1.27,1.27,0,0,0,.25-.78,1.07,1.07,0,0,0-.33-.81,2.41,2.41,0,0,0-.85-.49,8.41,8.41,0,0,0-1.16-.33q-.63-.15-1.26-.33a5.63,5.63,0,0,1-1.17-.49,2.22,2.22,0,0,1-1.17-2.07,2.61,2.61,0,0,1,.4-1.39,2.71,2.71,0,0,1,1.24-1,5,5,0,0,1,2.12-.39,6.49,6.49,0,0,1,1.69.23,4.75,4.75,0,0,1,1.46.64l-.47,1.12a4.57,4.57,0,0,0-1.33-.61,5.36,5.36,0,0,0-1.35-.19,3.74,3.74,0,0,0-1.36.21,1.64,1.64,0,0,0-.78.56,1.39,1.39,0,0,0-.24.79,1.06,1.06,0,0,0,.33.82,2.27,2.27,0,0,0,.85.49,11.77,11.77,0,0,0,1.16.33q.63.15,1.26.33a5,5,0,0,1,1.16.48,2.28,2.28,0,0,1,.85.78,2.23,2.23,0,0,1,.32,1.26,2.52,2.52,0,0,1-.4,1.38,2.85,2.85,0,0,1-1.26,1A5.07,5.07,0,0,1,104.62,41.83Z" transform="translate(0 -0.05)"/><path d="M113.56,41.8a4.27,4.27,0,0,1-2.09-.49,3.57,3.57,0,0,1-1.4-1.35,3.81,3.81,0,0,1-.5-2,4,4,0,0,1,.49-2,3.47,3.47,0,0,1,1.33-1.33,3.8,3.8,0,0,1,1.91-.49,3.7,3.7,0,0,1,1.9.48A3.42,3.42,0,0,1,116.5,36a4.15,4.15,0,0,1,.47,2c0,.05,0,.12,0,.19s0,.15,0,.21h-6.32v-1h5.62l-.55.33a2.53,2.53,0,0,0-.29-1.27,2.32,2.32,0,0,0-.85-.88,2.44,2.44,0,0,0-1.25-.31,2.47,2.47,0,0,0-1.25.31,2.21,2.21,0,0,0-.85.89,2.59,2.59,0,0,0-.31,1.29v.22a2.56,2.56,0,0,0,.34,1.33,2.38,2.38,0,0,0,1,.9,3,3,0,0,0,1.42.32,3.07,3.07,0,0,0,1.19-.22,2.61,2.61,0,0,0,1-.67l.74.86a3.14,3.14,0,0,1-1.25.9A4.3,4.3,0,0,1,113.56,41.8Z" transform="translate(0 -0.05)"/><path d="M118.83,41.71V34.29h1.29v2l-.13-.5a2.27,2.27,0,0,1,1-1.18,3.62,3.62,0,0,1,1.79-.41v1.31l-.16,0h-.15a2.28,2.28,0,0,0-1.71.65,2.55,2.55,0,0,0-.63,1.86v3.69Z" transform="translate(0 -0.05)"/><path d="M126.72,41.71l-3.24-7.42h1.4L127.76,41h-.67L130,34.29h1.31l-3.24,7.42Z" transform="translate(0 -0.05)"/><path d="M133.28,32.87a.91.91,0,0,1-.66-.26.81.81,0,0,1-.25-.61.85.85,0,0,1,.25-.63.91.91,0,0,1,.66-.25.93.93,0,0,1,.65.24.82.82,0,0,1,.26.61.9.9,0,0,1-.26.64A.86.86,0,0,1,133.28,32.87Zm-.68,8.84V34.29H134v7.42Z" transform="translate(0 -0.05)"/><path d="M139.74,41.8a4.08,4.08,0,0,1-2-.49A3.61,3.61,0,0,1,136.33,40a3.72,3.72,0,0,1-.51-2,3.77,3.77,0,0,1,.51-2,3.56,3.56,0,0,1,1.39-1.33,4.19,4.19,0,0,1,2-.49,4,4,0,0,1,1.8.4,2.83,2.83,0,0,1,1.23,1.19l-1,.65a2.33,2.33,0,0,0-.89-.8,2.57,2.57,0,0,0-1.13-.26,2.66,2.66,0,0,0-1.3.32,2.41,2.41,0,0,0-.91.91,2.6,2.6,0,0,0-.34,1.37,2.68,2.68,0,0,0,.34,1.39,2.34,2.34,0,0,0,.91.91,2.56,2.56,0,0,0,1.3.32,2.44,2.44,0,0,0,1.13-.26,2.33,2.33,0,0,0,.89-.8l1,.64a2.94,2.94,0,0,1-1.23,1.19A3.85,3.85,0,0,1,139.74,41.8Z" transform="translate(0 -0.05)"/><path d="M147.7,41.8a4.31,4.31,0,0,1-2.1-.49A3.57,3.57,0,0,1,144.2,40a3.8,3.8,0,0,1-.49-2,4,4,0,0,1,.48-2,3.47,3.47,0,0,1,1.33-1.33,3.8,3.8,0,0,1,1.91-.49,3.7,3.7,0,0,1,1.9.48,3.35,3.35,0,0,1,1.3,1.34,4.15,4.15,0,0,1,.47,2,1.34,1.34,0,0,1,0,.19,1.25,1.25,0,0,1,0,.21h-6.31v-1h5.61l-.55.33a2.43,2.43,0,0,0-.29-1.27,2.25,2.25,0,0,0-.85-.88,2.42,2.42,0,0,0-1.25-.31,2.47,2.47,0,0,0-1.25.31,2.28,2.28,0,0,0-.85.89,2.59,2.59,0,0,0-.31,1.29v.22a2.56,2.56,0,0,0,.35,1.33,2.29,2.29,0,0,0,.95.9,3,3,0,0,0,1.42.32,3.09,3.09,0,0,0,1.2-.22,2.67,2.67,0,0,0,.94-.67l.74.86a3.07,3.07,0,0,1-1.25.9A4.28,4.28,0,0,1,147.7,41.8Z" transform="translate(0 -0.05)"/><g id="OBJECTS"><polygon class="cls-1" points="23 0 0 23 6.67 23 6.67 29.56 17.07 19.16 33.77 35.86 24.18 45.45 39.33 45.45 39.33 23 46 23 23 0"/><polygon class="cls-2" points="19.36 16.87 6.67 26.85 6.67 29.56 17.07 19.16 33.77 35.86 24.18 45.45 26.66 45.45 36.06 33.56 19.36 16.87"/><rect class="cls-3" x="24.94" y="14.61" width="3.24" height="23.61" transform="translate(-10.9 26.47) rotate(-45)"/><path class="cls-3" d="M28.06,27.21l-2.29-2.29L42.48,8.21a1.62,1.62,0,0,1,2.29,0h0a1.62,1.62,0,0,1,0,2.29Z" transform="translate(0 -0.05)"/><rect class="cls-3" x="24.2" y="16.58" width="0.79" height="23.61" transform="translate(-12.87 25.65) rotate(-45)"/><rect class="cls-4" x="27.35" y="18.66" width="2.12" height="11.8" transform="translate(-9.05 27.24) rotate(-45)"/></g></svg>